<svg width="519" height="519" viewBox="0 0 519 519" fill="none" xmlns="http://www.w3.org/2000/svg">
<g filter="url(#filter0_d_134_62)">
<path d="M215.137 0H303.301L311.196 36.7585H208.557L215.137 0Z" fill="#5CD767"/>
<path d="M514.912 211.771L513.927 299.724L476.997 309.822L474.365 203.485L514.912 211.771Z" fill="#5CD767"/>
<path d="M4.59559 296.694L4.59559 210.049L42.7557 199.546L42.7557 305.883L4.59559 296.694Z" fill="#5CD767"/>
<path d="M48.0189 106.337L109.865 40.6969L142.763 63.0145L67.7572 137.844L48.0189 106.337Z" fill="#5CD767"/>
<path d="M466.47 404.344L403.307 471.297L370.41 445.041L445.415 368.899L466.47 404.344Z" fill="#5CD767"/>
<path d="M105.918 463.42L44.0717 403.031L65.1256 368.898L141.447 446.354L105.918 463.42Z" fill="#5CD767"/>
<path d="M411.409 43.8292L475.681 108.963L450.679 137.844L375.674 65.6399L411.409 43.8292Z" fill="#5CD767"/>
<path d="M301.975 510.696L213.821 510.695L203.294 471.297L308.564 471.297L301.975 510.696Z" fill="#5CD767"/>
</g>
<path d="M490.18 253.147C490.18 379.919 387.171 482.687 260.102 482.687C133.033 482.687 30.0234 379.919 30.0234 253.147C30.0234 126.375 133.033 23.6064 260.102 23.6064C387.171 23.6064 490.18 126.375 490.18 253.147Z" fill="#5CD767"/>
<g filter="url(#filter1_d_134_62)">
<circle cx="260.954" cy="254.046" r="160.244" fill="#5CD767"/>
</g>
<path d="M260.214 194.87L326.217 344.916H194.211L260.214 194.87Z" fill="black"/>
<circle cx="262.595" cy="202.015" r="50.0153" fill="black"/>
<defs>
<filter id="filter0_d_134_62" x="0.595581" y="0" width="518.317" height="518.696" filterUnits="userSpaceOnUse" color-interpolation-filters="sRGB">
<feFlood flood-opacity="0" result="BackgroundImageFix"/>
<feColorMatrix in="SourceAlpha" type="matrix" values="0 0 0 0 0 0 0 0 0 0 0 0 0 0 0 0 0 0 127 0" result="hardAlpha"/>
<feOffset dy="4"/>
<feGaussianBlur stdDeviation="2"/>
<feComposite in2="hardAlpha" operator="out"/>
<feColorMatrix type="matrix" values="0 0 0 0 0 0 0 0 0 0 0 0 0 0 0 0 0 0 0.25 0"/>
<feBlend mode="normal" in2="BackgroundImageFix" result="effect1_dropShadow_134_62"/>
<feBlend mode="normal" in="SourceGraphic" in2="effect1_dropShadow_134_62" result="shape"/>
</filter>
<filter id="filter1_d_134_62" x="94.71" y="87.8015" width="332.489" height="332.489" filterUnits="userSpaceOnUse" color-interpolation-filters="sRGB">
<feFlood flood-opacity="0" result="BackgroundImageFix"/>
<feColorMatrix in="SourceAlpha" type="matrix" values="0 0 0 0 0 0 0 0 0 0 0 0 0 0 0 0 0 0 127 0" result="hardAlpha"/>
<feMorphology radius="2" operator="dilate" in="SourceAlpha" result="effect1_dropShadow_134_62"/>
<feOffset/>
<feGaussianBlur stdDeviation="2"/>
<feComposite in2="hardAlpha" operator="out"/>
<feColorMatrix type="matrix" values="0 0 0 0 0 0 0 0 0 0 0 0 0 0 0 0 0 0 0.25 0"/>
<feBlend mode="normal" in2="BackgroundImageFix" result="effect1_dropShadow_134_62"/>
<feBlend mode="normal" in="SourceGraphic" in2="effect1_dropShadow_134_62" result="shape"/>
</filter>
</defs>
</svg>
