<svg width="363" height="334" viewBox="0 0 363 334" fill="none" xmlns="http://www.w3.org/2000/svg">
<path d="M58.2812 295.274H46.6875V287.962H58.2812C60.0729 287.962 61.5312 287.67 62.6562 287.087C63.7812 286.483 64.6042 285.649 65.125 284.587C65.6458 283.524 65.9062 282.326 65.9062 280.993C65.9062 279.639 65.6458 278.378 65.125 277.212C64.6042 276.045 63.7812 275.108 62.6562 274.399C61.5312 273.691 60.0729 273.337 58.2812 273.337H49.9375V311.493H40.5625V265.993H58.2812C61.8438 265.993 64.8958 266.639 67.4375 267.931C70 269.201 71.9583 270.962 73.3125 273.212C74.6667 275.462 75.3438 278.035 75.3438 280.931C75.3438 283.868 74.6667 286.41 73.3125 288.556C71.9583 290.701 70 292.358 67.4375 293.524C64.8958 294.691 61.8438 295.274 58.2812 295.274ZM99.125 303.868V288.806C99.125 287.722 98.9479 286.795 98.5938 286.024C98.2396 285.233 97.6875 284.618 96.9375 284.181C96.2083 283.743 95.2604 283.524 94.0938 283.524C93.0938 283.524 92.2292 283.701 91.5 284.056C90.7708 284.389 90.2083 284.878 89.8125 285.524C89.4167 286.149 89.2188 286.889 89.2188 287.743H80.2188C80.2188 286.306 80.5521 284.941 81.2188 283.649C81.8854 282.358 82.8542 281.222 84.125 280.243C85.3958 279.243 86.9062 278.462 88.6562 277.899C90.4271 277.337 92.4062 277.056 94.5938 277.056C97.2188 277.056 99.5521 277.493 101.594 278.368C103.635 279.243 105.24 280.556 106.406 282.306C107.594 284.056 108.188 286.243 108.188 288.868V303.337C108.188 305.191 108.302 306.712 108.531 307.899C108.76 309.066 109.094 310.087 109.531 310.962V311.493H100.438C100 310.576 99.6667 309.431 99.4375 308.056C99.2292 306.66 99.125 305.264 99.125 303.868ZM100.312 290.899L100.375 295.993H95.3438C94.1562 295.993 93.125 296.128 92.25 296.399C91.375 296.67 90.6562 297.056 90.0938 297.556C89.5312 298.035 89.1146 298.597 88.8438 299.243C88.5938 299.889 88.4688 300.597 88.4688 301.368C88.4688 302.139 88.6458 302.837 89 303.462C89.3542 304.066 89.8646 304.545 90.5312 304.899C91.1979 305.233 91.9792 305.399 92.875 305.399C94.2292 305.399 95.4062 305.128 96.4062 304.587C97.4062 304.045 98.1771 303.378 98.7188 302.587C99.2812 301.795 99.5729 301.045 99.5938 300.337L101.969 304.149C101.635 305.003 101.177 305.889 100.594 306.806C100.031 307.722 99.3125 308.587 98.4375 309.399C97.5625 310.191 96.5104 310.847 95.2812 311.368C94.0521 311.868 92.5938 312.118 90.9062 312.118C88.7604 312.118 86.8125 311.691 85.0625 310.837C83.3333 309.962 81.9583 308.764 80.9375 307.243C79.9375 305.701 79.4375 303.951 79.4375 301.993C79.4375 300.222 79.7708 298.649 80.4375 297.274C81.1042 295.899 82.0833 294.743 83.375 293.806C84.6875 292.847 86.3229 292.128 88.2812 291.649C90.2396 291.149 92.5104 290.899 95.0938 290.899H100.312ZM133.406 302.149C133.406 301.503 133.219 300.92 132.844 300.399C132.469 299.878 131.771 299.399 130.75 298.962C129.75 298.503 128.302 298.087 126.406 297.712C124.698 297.337 123.104 296.868 121.625 296.306C120.167 295.722 118.896 295.024 117.812 294.212C116.75 293.399 115.917 292.441 115.312 291.337C114.708 290.212 114.406 288.931 114.406 287.493C114.406 286.076 114.708 284.743 115.312 283.493C115.938 282.243 116.823 281.139 117.969 280.181C119.135 279.201 120.552 278.441 122.219 277.899C123.906 277.337 125.802 277.056 127.906 277.056C130.844 277.056 133.365 277.524 135.469 278.462C137.594 279.399 139.219 280.691 140.344 282.337C141.49 283.962 142.062 285.816 142.062 287.899H133.062C133.062 287.024 132.875 286.243 132.5 285.556C132.146 284.847 131.583 284.295 130.812 283.899C130.062 283.483 129.083 283.274 127.875 283.274C126.875 283.274 126.01 283.451 125.281 283.806C124.552 284.139 123.99 284.597 123.594 285.181C123.219 285.743 123.031 286.368 123.031 287.056C123.031 287.576 123.135 288.045 123.344 288.462C123.573 288.858 123.938 289.222 124.438 289.556C124.938 289.889 125.583 290.201 126.375 290.493C127.188 290.764 128.188 291.014 129.375 291.243C131.812 291.743 133.99 292.399 135.906 293.212C137.823 294.003 139.344 295.087 140.469 296.462C141.594 297.816 142.156 299.597 142.156 301.806C142.156 303.306 141.823 304.681 141.156 305.931C140.49 307.181 139.531 308.274 138.281 309.212C137.031 310.128 135.531 310.847 133.781 311.368C132.052 311.868 130.104 312.118 127.938 312.118C124.792 312.118 122.125 311.556 119.938 310.431C117.771 309.306 116.125 307.878 115 306.149C113.896 304.399 113.344 302.608 113.344 300.774H121.875C121.917 302.003 122.229 302.993 122.812 303.743C123.417 304.493 124.177 305.035 125.094 305.368C126.031 305.701 127.042 305.868 128.125 305.868C129.292 305.868 130.26 305.712 131.031 305.399C131.802 305.066 132.385 304.628 132.781 304.087C133.198 303.524 133.406 302.878 133.406 302.149ZM166.281 302.149C166.281 301.503 166.094 300.92 165.719 300.399C165.344 299.878 164.646 299.399 163.625 298.962C162.625 298.503 161.177 298.087 159.281 297.712C157.573 297.337 155.979 296.868 154.5 296.306C153.042 295.722 151.771 295.024 150.688 294.212C149.625 293.399 148.792 292.441 148.188 291.337C147.583 290.212 147.281 288.931 147.281 287.493C147.281 286.076 147.583 284.743 148.188 283.493C148.812 282.243 149.698 281.139 150.844 280.181C152.01 279.201 153.427 278.441 155.094 277.899C156.781 277.337 158.677 277.056 160.781 277.056C163.719 277.056 166.24 277.524 168.344 278.462C170.469 279.399 172.094 280.691 173.219 282.337C174.365 283.962 174.938 285.816 174.938 287.899H165.938C165.938 287.024 165.75 286.243 165.375 285.556C165.021 284.847 164.458 284.295 163.688 283.899C162.938 283.483 161.958 283.274 160.75 283.274C159.75 283.274 158.885 283.451 158.156 283.806C157.427 284.139 156.865 284.597 156.469 285.181C156.094 285.743 155.906 286.368 155.906 287.056C155.906 287.576 156.01 288.045 156.219 288.462C156.448 288.858 156.812 289.222 157.312 289.556C157.812 289.889 158.458 290.201 159.25 290.493C160.062 290.764 161.062 291.014 162.25 291.243C164.688 291.743 166.865 292.399 168.781 293.212C170.698 294.003 172.219 295.087 173.344 296.462C174.469 297.816 175.031 299.597 175.031 301.806C175.031 303.306 174.698 304.681 174.031 305.931C173.365 307.181 172.406 308.274 171.156 309.212C169.906 310.128 168.406 310.847 166.656 311.368C164.927 311.868 162.979 312.118 160.812 312.118C157.667 312.118 155 311.556 152.812 310.431C150.646 309.306 149 307.878 147.875 306.149C146.771 304.399 146.219 302.608 146.219 300.774H154.75C154.792 302.003 155.104 302.993 155.688 303.743C156.292 304.493 157.052 305.035 157.969 305.368C158.906 305.701 159.917 305.868 161 305.868C162.167 305.868 163.135 305.712 163.906 305.399C164.677 305.066 165.26 304.628 165.656 304.087C166.073 303.524 166.281 302.878 166.281 302.149ZM197.844 301.993L208.562 265.993H219L203.156 311.493H196.281L197.844 301.993ZM187.969 265.993L198.656 301.993L200.281 311.493H193.344L177.594 265.993H187.969ZM239.5 303.868V288.806C239.5 287.722 239.323 286.795 238.969 286.024C238.615 285.233 238.062 284.618 237.312 284.181C236.583 283.743 235.635 283.524 234.469 283.524C233.469 283.524 232.604 283.701 231.875 284.056C231.146 284.389 230.583 284.878 230.188 285.524C229.792 286.149 229.594 286.889 229.594 287.743H220.594C220.594 286.306 220.927 284.941 221.594 283.649C222.26 282.358 223.229 281.222 224.5 280.243C225.771 279.243 227.281 278.462 229.031 277.899C230.802 277.337 232.781 277.056 234.969 277.056C237.594 277.056 239.927 277.493 241.969 278.368C244.01 279.243 245.615 280.556 246.781 282.306C247.969 284.056 248.562 286.243 248.562 288.868V303.337C248.562 305.191 248.677 306.712 248.906 307.899C249.135 309.066 249.469 310.087 249.906 310.962V311.493H240.812C240.375 310.576 240.042 309.431 239.812 308.056C239.604 306.66 239.5 305.264 239.5 303.868ZM240.688 290.899L240.75 295.993H235.719C234.531 295.993 233.5 296.128 232.625 296.399C231.75 296.67 231.031 297.056 230.469 297.556C229.906 298.035 229.49 298.597 229.219 299.243C228.969 299.889 228.844 300.597 228.844 301.368C228.844 302.139 229.021 302.837 229.375 303.462C229.729 304.066 230.24 304.545 230.906 304.899C231.573 305.233 232.354 305.399 233.25 305.399C234.604 305.399 235.781 305.128 236.781 304.587C237.781 304.045 238.552 303.378 239.094 302.587C239.656 301.795 239.948 301.045 239.969 300.337L242.344 304.149C242.01 305.003 241.552 305.889 240.969 306.806C240.406 307.722 239.688 308.587 238.812 309.399C237.938 310.191 236.885 310.847 235.656 311.368C234.427 311.868 232.969 312.118 231.281 312.118C229.135 312.118 227.188 311.691 225.438 310.837C223.708 309.962 222.333 308.764 221.312 307.243C220.312 305.701 219.812 303.951 219.812 301.993C219.812 300.222 220.146 298.649 220.812 297.274C221.479 295.899 222.458 294.743 223.75 293.806C225.062 292.847 226.698 292.128 228.656 291.649C230.615 291.149 232.885 290.899 235.469 290.899H240.688ZM275.5 303.399V277.681H284.5V311.493H276.031L275.5 303.399ZM276.5 296.462L279.156 296.399C279.156 298.649 278.896 300.743 278.375 302.681C277.854 304.597 277.073 306.264 276.031 307.681C274.99 309.076 273.677 310.17 272.094 310.962C270.51 311.733 268.646 312.118 266.5 312.118C264.854 312.118 263.333 311.889 261.938 311.431C260.562 310.951 259.375 310.212 258.375 309.212C257.396 308.191 256.625 306.889 256.062 305.306C255.521 303.701 255.25 301.774 255.25 299.524V277.681H264.25V299.587C264.25 300.587 264.365 301.431 264.594 302.118C264.844 302.806 265.188 303.368 265.625 303.806C266.062 304.243 266.573 304.556 267.156 304.743C267.76 304.931 268.427 305.024 269.156 305.024C271.01 305.024 272.469 304.649 273.531 303.899C274.615 303.149 275.375 302.128 275.812 300.837C276.271 299.524 276.5 298.066 276.5 296.462ZM300.875 263.493V311.493H291.844V263.493H300.875ZM324.875 277.681V284.056H305.188V277.681H324.875ZM310.062 269.337H319.062V301.306C319.062 302.285 319.188 303.035 319.438 303.556C319.708 304.076 320.104 304.441 320.625 304.649C321.146 304.837 321.802 304.931 322.594 304.931C323.156 304.931 323.656 304.91 324.094 304.868C324.552 304.806 324.938 304.743 325.25 304.681L325.281 311.306C324.51 311.556 323.677 311.753 322.781 311.899C321.885 312.045 320.896 312.118 319.812 312.118C317.833 312.118 316.104 311.795 314.625 311.149C313.167 310.483 312.042 309.42 311.25 307.962C310.458 306.503 310.062 304.587 310.062 302.212V269.337Z" fill="#5CD767"/>
<g filter="url(#filter0_d_262_21)">
<path d="M162.91 0H200.276L203.622 15.5793H160.121L162.91 0Z" fill="#5CD767"/>
<path d="M289.963 89.7547L289.545 127.031L273.893 131.311L272.778 86.2425L289.963 89.7547Z" fill="#5CD767"/>
<path d="M73.6763 125.747L73.6763 89.0246L89.8496 84.5734L89.8496 129.642L73.6763 125.747Z" fill="#5CD767"/>
<path d="M92.0803 45.0688L118.292 17.2485L132.235 26.7073L100.446 58.4224L92.0803 45.0688Z" fill="#5CD767"/>
<path d="M269.431 171.372L242.662 199.749L228.719 188.621L260.508 156.35L269.431 171.372Z" fill="#5CD767"/>
<path d="M116.62 196.411L90.4073 170.816L99.3306 156.349L131.678 189.177L116.62 196.411Z" fill="#5CD767"/>
<path d="M246.095 18.5761L273.335 46.1814L262.739 58.4224L230.95 27.8201L246.095 18.5761Z" fill="#5CD767"/>
<path d="M199.714 216.447L162.352 216.447L157.89 199.749L202.507 199.749L199.714 216.447Z" fill="#5CD767"/>
</g>
<path d="M279.481 107.291C279.481 161.02 235.822 204.576 181.967 204.576C128.112 204.576 84.4532 161.02 84.4532 107.291C84.4532 53.5613 128.112 10.005 181.967 10.005C235.822 10.005 279.481 53.5613 279.481 107.291Z" fill="#5CD767"/>
<g filter="url(#filter1_d_262_21)">
<circle cx="182.328" cy="107.672" r="67.916" fill="#5CD767"/>
</g>
<path d="M182.157 84.4292L210.13 148.023H154.183L182.157 84.4292Z" fill="black"/>
<circle cx="183.166" cy="87.4574" r="21.1979" fill="black"/>
<defs>
<filter id="filter0_d_262_21" x="69.6763" y="0" width="224.287" height="224.447" filterUnits="userSpaceOnUse" color-interpolation-filters="sRGB">
<feFlood flood-opacity="0" result="BackgroundImageFix"/>
<feColorMatrix in="SourceAlpha" type="matrix" values="0 0 0 0 0 0 0 0 0 0 0 0 0 0 0 0 0 0 127 0" result="hardAlpha"/>
<feOffset dy="4"/>
<feGaussianBlur stdDeviation="2"/>
<feComposite in2="hardAlpha" operator="out"/>
<feColorMatrix type="matrix" values="0 0 0 0 0 0 0 0 0 0 0 0 0 0 0 0 0 0 0.25 0"/>
<feBlend mode="normal" in2="BackgroundImageFix" result="effect1_dropShadow_262_21"/>
<feBlend mode="normal" in="SourceGraphic" in2="effect1_dropShadow_262_21" result="shape"/>
</filter>
<filter id="filter1_d_262_21" x="108.412" y="33.7557" width="147.832" height="147.832" filterUnits="userSpaceOnUse" color-interpolation-filters="sRGB">
<feFlood flood-opacity="0" result="BackgroundImageFix"/>
<feColorMatrix in="SourceAlpha" type="matrix" values="0 0 0 0 0 0 0 0 0 0 0 0 0 0 0 0 0 0 127 0" result="hardAlpha"/>
<feMorphology radius="2" operator="dilate" in="SourceAlpha" result="effect1_dropShadow_262_21"/>
<feOffset/>
<feGaussianBlur stdDeviation="2"/>
<feComposite in2="hardAlpha" operator="out"/>
<feColorMatrix type="matrix" values="0 0 0 0 0 0 0 0 0 0 0 0 0 0 0 0 0 0 0.25 0"/>
<feBlend mode="normal" in2="BackgroundImageFix" result="effect1_dropShadow_262_21"/>
<feBlend mode="normal" in="SourceGraphic" in2="effect1_dropShadow_262_21" result="shape"/>
</filter>
</defs>
</svg>
