<svg width="184" height="59" viewBox="0 0 184 59" fill="none" xmlns="http://www.w3.org/2000/svg">
<path d="M0 14C0 6.26801 6.26801 0 14 0H170C177.732 0 184 6.26801 184 14V45C184 52.732 177.732 59 170 59H14C6.26801 59 0 52.732 0 45V14Z" fill="#5CD767"/>
<g clip-path="url(#clip0_15_25)">
<path d="M78.2443 12.3437C80.8381 9.79687 86.0256 8.125 91.4787 8.125C96.9318 8.125 102.151 9.78125 104.651 12.3437C104.951 12.5694 105.324 12.679 105.699 12.6523C106.074 12.6257 106.427 12.4646 106.693 12.1986C106.959 11.9326 107.12 11.5797 107.147 11.2045C107.173 10.8293 107.064 10.4571 106.838 10.1562C103.088 6.34375 96.4318 5 91.4631 5C86.4943 5 79.8381 6.35937 76.0568 10.1562C75.8312 10.4571 75.7216 10.8293 75.7483 11.2045C75.7749 11.5797 75.936 11.9326 76.202 12.1986C76.4679 12.4646 76.8209 12.6257 77.1961 12.6523C77.5712 12.679 77.9434 12.5694 78.2443 12.3437ZM111.838 24.6094C107.432 15.75 100.588 11.25 91.4787 11.25C82.3693 11.25 75.51 15.75 71.1662 24.6094C70.9809 24.9784 70.9492 25.4058 71.078 25.7981C71.2068 26.1904 71.4857 26.5158 71.8537 26.7031C72.0381 26.7968 72.2393 26.8529 72.4456 26.8682C72.6518 26.8835 72.8591 26.8577 73.0553 26.7923C73.2515 26.7269 73.4328 26.6232 73.5886 26.4872C73.7445 26.3512 73.8717 26.1856 73.9631 26C77.7756 18.2031 83.5256 14.375 91.4475 14.375C99.3693 14.375 105.151 18.1875 109.057 26.0156C109.188 26.2757 109.389 26.4939 109.637 26.6458C109.886 26.7976 110.172 26.877 110.463 26.875C110.702 26.8843 110.939 26.8304 111.151 26.7187C111.336 26.6274 111.502 26.5001 111.638 26.3443C111.774 26.1885 111.877 26.0072 111.943 25.811C112.008 25.6148 112.034 25.4075 112.019 25.2012C112.003 24.995 111.947 24.7938 111.854 24.6094H111.838ZM96.5256 48.875C90.0725 46.1094 87.4631 41.8437 87.1506 38.7187C87.0245 37.9096 87.1224 37.0813 87.4336 36.3239C87.7449 35.5664 88.2576 34.9086 88.9162 34.4219C90.2443 33.5312 92.1975 34.7969 94.9631 36.7969C97.7287 38.7969 101.416 41.4844 104.604 39.0625C107.416 36.9531 108.26 33.1875 106.869 29C105.768 25.7487 103.705 22.9085 100.954 20.855C98.203 18.8016 94.8934 17.6316 91.4631 17.5C77.4631 17.5 72.4631 29.6094 72.4631 40.9375C72.4631 41.3519 72.6277 41.7493 72.9207 42.0424C73.2138 42.3354 73.6112 42.5 74.0256 42.5C74.44 42.5 74.8374 42.3354 75.1304 42.0424C75.4235 41.7493 75.5881 41.3519 75.5881 40.9375C75.5881 36.25 76.7287 20.625 91.4631 20.625C97.5568 20.625 102.401 25.4687 103.963 30C104.432 31.3594 105.213 34.6875 102.791 36.5625C101.541 37.5 99.6662 36.25 96.8537 34.2656C94.0412 32.2812 90.4943 29.6719 87.26 31.8281C86.136 32.63 85.2514 33.7225 84.7009 34.9886C84.1504 36.2547 83.9548 37.6468 84.135 39.0156C84.51 43.0156 87.635 48.3906 95.3537 51.75C95.527 51.8243 95.7122 51.8667 95.9006 51.875C96.2618 51.8779 96.6129 51.7556 96.8941 51.5289C97.1754 51.3021 97.3693 50.9849 97.443 50.6312C97.5167 50.2776 97.4655 49.9093 97.2983 49.5891C97.131 49.2689 96.8579 49.0166 96.5256 48.875ZM81.8381 35.0625C82.4472 33.2515 83.5162 31.6297 84.9405 30.3561C86.3648 29.0824 88.0955 28.2006 89.9631 27.7969C93.4631 27.125 96.7131 28.7344 99.3381 32.4844C99.4543 32.66 99.6048 32.8103 99.7805 32.9263C99.9563 33.0423 100.154 33.1215 100.361 33.1593C100.568 33.1971 100.781 33.1926 100.986 33.1461C101.191 33.0996 101.385 33.0121 101.556 32.8888C101.727 32.7655 101.871 32.609 101.979 32.4287C102.088 32.2483 102.159 32.0479 102.188 31.8393C102.218 31.6308 102.205 31.4185 102.15 31.2152C102.095 31.0119 102 30.8218 101.869 30.6562C97.3381 24.2969 92.0725 24.2187 89.3693 24.7187C86.9006 25.2318 84.6127 26.392 82.7401 28.0806C80.8676 29.7692 79.4777 31.9254 78.7131 34.3281C77.1506 40.4844 79.385 47.25 85.2756 54.4375C85.4259 54.623 85.6168 54.7715 85.8335 54.8717C86.0501 54.9719 86.2869 55.0212 86.5256 55.0156C86.8867 55.0209 87.2372 54.893 87.51 54.6562C87.8272 54.394 88.0282 54.0171 88.0691 53.6075C88.1101 53.1979 87.9877 52.7887 87.7287 52.4687C82.51 46.0625 80.51 40.2344 81.8381 35.0781V35.0625ZM105.744 42.9687C105.115 43.5562 104.335 43.9588 103.492 44.1324C102.649 44.3061 101.774 44.244 100.963 43.9531C97.2131 43.0625 93.4943 39.7344 92.6818 37.3125C92.6162 37.1176 92.5128 36.9375 92.3775 36.7825C92.2422 36.6275 92.0778 36.5007 91.8935 36.4093C91.7093 36.3179 91.5088 36.2637 91.3036 36.2498C91.0983 36.2358 90.8924 36.2625 90.6975 36.3281C90.5025 36.3938 90.3224 36.4972 90.1675 36.6325C90.0125 36.7677 89.8857 36.9322 89.7943 37.1164C89.7029 37.3007 89.6487 37.5012 89.6347 37.7064C89.6208 37.9116 89.6474 38.1176 89.7131 38.3125C90.9631 41.9531 95.76 45.9375 100.244 47C101.023 47.1823 101.82 47.2766 102.619 47.2812C103.601 47.3026 104.577 47.1269 105.489 46.7646C106.402 46.4023 107.232 45.8607 107.932 45.1719C108.158 44.871 108.267 44.4988 108.24 44.1236C108.214 43.7484 108.053 43.3955 107.787 43.1295C107.521 42.8636 107.168 42.7025 106.793 42.6758C106.417 42.6491 106.045 42.7587 105.744 42.9844V42.9687Z" fill="black"/>
</g>
<defs>
<clipPath id="clip0_15_25">
<rect width="50" height="50" fill="white" transform="translate(67 5)"/>
</clipPath>
</defs>
</svg>
